<svg width="28" height="12" viewBox="0 0 28 12" fill="none" xmlns="http://www.w3.org/2000/svg">
<path d="M0.56 9.852C2.282 10.818 4.466 11.406 6.804 11.406C11.494 11.406 13.944 10.216 13.944 7.934C13.944 5.862 11.662 4.91 7.294 4.756C4.592 4.658 3.36 4.364 3.36 3.538C3.36 2.712 4.34 2.376 6.79 2.348C9.24 2.334 11.032 2.81 12.572 3.692L13.244 1.69C11.438 0.807999 9.422 0.332 6.832 0.345999C3.038 0.359999 1.064 1.48 1.064 3.622C1.064 5.596 3.29 6.604 7.784 6.8C10.43 6.912 11.494 7.178 11.494 7.934C11.494 8.942 9.842 9.376 7.084 9.39C4.97 9.404 3.038 8.9 1.386 7.934L0.56 9.852ZM15.6259 0.724V11H27.0499V9.04H18.0619V0.724H15.6259Z" fill="white"/>
</svg>
