<svg width="395" height="87" viewBox="0 0 395 87" fill="none" xmlns="http://www.w3.org/2000/svg">
<path d="M37.024 23.5272C35.5273 21.6028 31.4432 17.6257 27.0812 17.1125C21.6286 16.471 3.3466 29.942 3.02586 34.753C2.70512 39.5641 5.27102 45.9789 16.1761 50.1484C27.0812 54.318 32.8543 65.5438 30.9298 71.3171C29.0054 77.0904 18.7416 83.1844 17.4589 78.6941C16.1761 74.2038 23.5532 57.5254 37.024 56.5632C50.4948 55.601 38.9483 79.3356 53.0607 81.5807C67.1732 83.8259 57.551 41.8093 42.4764 43.413C27.4017 45.0166 59.4755 51.7521 67.1732 47.5825C74.8709 43.413 72.9464 56.5632 71.3428 58.4876C69.7391 60.412 52.74 71.6379 71.3428 77.4111C89.9455 83.1844 66.8524 53.3558 66.211 44.0544C65.5695 34.7531 74.8709 26.4139 81.2856 27.0554C87.7004 27.6968 92.1907 68.1097 93.7944 71.9586C95.3981 75.8074 100.53 80.9392 106.945 74.2038C113.359 67.4683 121.057 51.7521 110.152 48.224C101.428 45.4015 94.7566 61.5881 92.5114 70.0342C96.1464 54.4249 105.726 22.9499 114.963 21.9236C126.51 20.6406 128.113 70.9964 127.472 74.5245C126.83 78.0526 128.113 57.2047 132.283 51.1107C136.452 45.0166 137.735 41.8093 135.811 42.13C133.887 42.4507 140.622 47.9033 141.584 52.0729C141.856 53.2504 142.23 55.9372 142.909 59.1291M142.909 59.1291C144.554 41.1678 155.697 36.9982 168.847 47.9033C181.997 58.8084 169.809 74.2038 157.3 76.7697C150.893 78.0841 147.178 72.6652 144.95 66.5061M142.909 59.1291C143.402 61.4497 144.057 64.0374 144.95 66.5061M144.95 66.5061C146.073 62.9779 149.988 55.6651 156.659 54.6388C164.998 53.3558 171.734 60.0913 177.828 55.601C183.922 51.1107 177.186 64.5816 184.563 68.1097C191.94 71.6379 185.846 56.2425 195.147 51.7521C204.449 47.2618 198.355 66.8268 218.882 59.4498M178.469 36.036C181.356 34.1116 187.835 30.2627 190.657 30.2627" stroke="#C33525" stroke-width="5" stroke-linecap="round" stroke-linejoin="round"/>
<path d="M236.843 3C235.133 18.823 234.149 51.6238 243.899 56.2424C256.087 62.0157 263.144 39.2433 262.823 36.036C262.502 32.8286 253.842 53.6765 266.993 59.7705C277.513 64.6457 282.922 47.9032 284.312 38.9226C283.992 52.1797 283.543 79.5921 284.312 83.1844C285.275 87.6747 279.181 45.0166 294.576 36.036C309.971 27.0553 289.444 45.6581 313.179 56.2424C314.248 56.8839 317.541 56.8197 322.159 51.4314C317.455 54.318 307.854 57.2688 307.085 45.9788C306.122 31.8664 314.462 27.6968 319.273 29.9419C324.084 32.1871 309.33 52.7143 319.593 47.5825C329.857 42.4507 337.875 23.2065 337.555 7.81106C337.234 -7.58433 335.63 44.3751 338.196 49.8277C340.762 55.2802 352.95 36.036 355.837 26.4138C358.723 16.7917 357.12 56.5631 375.722 52.3936M389.835 40.2055C388.873 41.9161 387.526 45.4015 389.835 45.6581C392.722 45.9788 392.722 39.8848 389.835 40.2055Z" stroke="#C33525" stroke-width="5" stroke-linecap="round" stroke-linejoin="round"/>
</svg>
