<svg width="53" height="33" viewBox="0 0 53 33" fill="none" xmlns="http://www.w3.org/2000/svg">
<path d="M5.80728 12.582C6.02215 11.9305 6.23702 11.279 6.45189 10.6275C6.66647 9.97689 6.81914 8.85099 7.55169 8.55769C8.26694 8.27132 9.20684 8.4858 9.92257 8.64616C11.107 8.91153 12.3385 9.34875 13.3907 9.95792C16.0472 11.496 16.2423 15.2902 15.4855 17.8977C14.503 21.2826 12.0714 23.9308 8.73984 25.0781C8.21921 25.2574 6.88519 25.7616 6.31339 25.421C6.22332 25.3673 6.35095 25.2681 6.39418 25.2417C7.12465 24.7962 8.3722 24.8 9.17462 24.6797C13.5105 24.0298 17.8566 23.7553 22.233 23.5904C22.9919 23.5618 23.9617 23.3479 24.7028 23.5923" stroke="#C33525" stroke-width="3" stroke-linecap="round" stroke-linejoin="round"/>
<path d="M26.7555 11.2623C24.5548 10.6018 22.3474 10.1325 20.807 12.2477C19.994 13.3639 19.5594 14.866 19.2559 16.1949C18.8854 17.8174 19.4274 19.5755 20.9129 20.485C22.5463 21.4851 25.0224 21.8715 26.8458 21.239C28.6635 20.6085 30.8126 19.3209 31.8195 17.6242C33.1598 15.3658 32.2905 12.662 30.7499 10.7485C29.6357 9.36455 28.0991 8.04726 26.4632 7.3193C25.486 6.8845 24.9133 7.11548 23.9308 7.11257" stroke="#C33525" stroke-width="3" stroke-linecap="round" stroke-linejoin="round"/>
<path d="M34.5277 7.49876C35.6402 5.90708 37.0746 4.57084 38.3258 3.09208C38.581 2.79049 38.8315 2.4848 39.0772 2.17543C39.1545 2.078 39.2647 1.87212 39.2613 2.11156C39.2556 2.50731 39.1492 2.88422 39.0659 3.26864C38.387 6.40076 37.9477 9.58818 37.4918 12.7582C37.1472 15.1545 36.8123 17.5544 36.5714 19.9637C36.4982 20.6962 36.4895 21.4551 36.3535 22.1802C36.2617 22.6701 35.771 22.5683 35.3467 22.6122C35.1651 22.631 33.0657 22.9487 33.0025 22.7512C32.9369 22.5462 34.1933 21.9572 34.2122 21.9473C35.954 21.0376 37.7986 20.281 39.6783 19.7083C41.0987 19.2755 42.576 18.8907 44.0624 18.7916" stroke="#C33525" stroke-width="3" stroke-linecap="round" stroke-linejoin="round"/>
<path d="M49.3371 4C47.0741 4.02407 44.8195 4.12361 43.0633 5.75065C42.5287 6.24599 41.7748 7.43761 42.064 8.24515C42.2231 8.68909 43.0314 8.8183 43.4014 8.89131C44.432 9.09462 45.5702 9.20676 46.6172 9.07915C47.8043 8.93448 49.089 8.43241 49.7654 7.40363C50.0346 6.99418 50.1986 6.49832 50.5393 6.14136C50.8803 5.78411 50.7539 6.2511 50.7422 6.58466C50.5977 10.6934 50.3189 14.9427 51.0653 19.0045C51.1465 19.4468 51.1596 19.9881 51.332 20.4096C51.3974 20.5696 51.3829 20.4331 51.3658 20.3645" stroke="#C33525" stroke-width="3" stroke-linecap="round" stroke-linejoin="round"/>
</svg>
